# xmcd CD database file
# Copyright (C) 1997 Ti Kan
# 
# Track frame offsets:
#     182
#     11750
#     24675
#     35385
#     45595
#     58547
#     67345
#     79185
#     90647
#     100922
#     112660
#     123252
#     133857
#     146477
# 
# Disc length: 2101 seconds
# 
# Revision: 1
# Processed by: cddbd v1.4b41PL1 Copyright (c) Steve Scherf et al.
# Submitted via: DiscPlay 4.0.3
# 
DISCID=bb08330e
DTITLE=Patsy Cline - Try Again
DYEAR=1900
DGENRE=
TTITLE0=Walkin' After Midnight
TTITLE1=Life's Railway To Heaven
TTITLE2=Honky-tonk Merry Go Round
TTITLE3=Pick Me Up On The Merry Go Round
TTITLE4=If I Could See The World
TTITLE5=Try Again
TTITLE6=Stay Asleep
TTITLE7=Lost Again
TTITLE8=Too Many Secrets
TTITLE9=Never No More
TTITLE10=I Can See An Angel
TTITLE11=Stop Look And Listen
TTITLE12=Yes I Understand
TTITLE13=Just Out Of Reach (of My Two Empty Arms)
EXTD=
EXTT0=
EXTT1=
EXTT2=
EXTT3=
EXTT4=
EXTT5=
EXTT6=
EXTT7=
EXTT8=
EXTT9=
EXTT10=
EXTT11=
EXTT12=
EXTT13=
PLAYORDER=
